# xmcd
#
# Track frame offsets: 
#        150
#        34077
#        54876
#        71209
#        91406
#        115262
#        135806
#        169294
#        192277
#        219434
#
# Disc length: 3477 seconds
#
# Revision: 0
# Processed by: cddbd v1.5.2PL0 Copyright (c) Steve Scherf et al.
# Submitted via: ExactAudioCopy v1.2
#
DISCID=870d930a
DTITLE=Junior Wells - Reelin' and Rockin' (Live)
DYEAR=1997
DGENRE=Blues
TTITLE0=Messin' with the Kid (Live in Osaka 1997)
TTITLE1=Take off Your Shoes (Live in Osaka 1997) 
TTITLE2=Little by Little (Live in Osaka 1997)
TTITLE3=Hoodoo Man Blues (Live in Osaka 1997)
TTITLE4=The Train (Live in Osaka 1997)
TTITLE5=You Gotta Love Her with a Feeling (Live in Osaka 1997)
TTITLE6=Sweet Sixteen (Live in Osaka 1997)
TTITLE7=What My Momma Told Me (Live in Osaka 1997)
TTITLE8=Little Red Rooster (Live in Osaka 1997)
TTITLE9=Today I Started Loving You Again (Live in Osaka 1997)
EXTD=
EXTT0=
EXTT1=
EXTT2=
EXTT3=
EXTT4=
EXTT5=
EXTT6=
EXTT7=
EXTT8=
EXTT9=
PLAYORDER=
